<?xml version="1.0" standalone="no"?>
<!DOCTYPE svg PUBLIC "-//W3C//DTD SVG 20010904//EN"
 "http://www.w3.org/TR/2001/REC-SVG-20010904/DTD/svg10.dtd">
<svg version="1.0" xmlns="http://www.w3.org/2000/svg"
 width="500.000000pt" height="500.000000pt" viewBox="0 0 500.000000 500.000000"
 preserveAspectRatio="xMidYMid meet">
<metadata>
Created by potrace 1.11, written by Peter Selinger 2001-2013
</metadata>
<g transform="translate(0.000000,500.000000) scale(0.100000,-0.100000)"
fill="#000000" stroke="none">
<path d="M1259 4402 c-30 -21 -55 -46 -57 -57 -1 -12 69 -126 177 -290 99
-148 179 -271 177 -273 -3 -2 -161 -4 -353 -4 -404 0 -385 5 -382 -90 1 -35 8
-63 16 -70 9 -7 137 -11 428 -12 l415 -1 340 -509 c186 -280 337 -512 335
-515 -6 -11 -1304 -6 -1314 4 -5 6 -100 147 -211 315 -111 168 -209 311 -218
318 -9 6 -25 9 -36 6 -37 -12 -104 -63 -111 -85 -5 -16 31 -77 157 -267 91
-136 172 -258 181 -272 l16 -25 -384 0 c-288 0 -387 -3 -396 -12 -17 -17 -19
-119 -4 -140 12 -16 43 -18 394 -18 210 0 381 -3 381 -8 0 -4 -77 -123 -172
-265 -102 -153 -172 -267 -173 -281 0 -19 13 -34 53 -62 50 -35 84 -42 103
-22 4 5 101 150 216 323 l209 315 652 0 c359 0 651 -3 650 -6 -2 -4 -149 -225
-327 -492 l-323 -486 -426 0 c-484 0 -452 6 -452 -85 0 -86 -27 -80 390 -86
l370 -5 -190 -285 c-104 -157 -190 -293 -190 -302 0 -31 114 -104 144 -92 7 3
102 138 211 301 l197 295 186 -278 c140 -209 193 -280 209 -282 13 -2 43 10
70 29 51 35 63 47 63 66 0 7 -90 148 -201 314 -110 166 -203 307 -206 314 -2
7 144 236 326 509 l331 496 80 -120 c343 -512 563 -846 563 -855 0 -5 -95
-153 -211 -328 -117 -175 -212 -323 -212 -330 1 -31 98 -100 133 -95 16 2 71
76 209 282 103 153 191 283 196 288 5 5 89 -113 206 -287 108 -163 203 -298
211 -301 28 -11 145 65 145 95 0 5 -83 135 -185 288 l-185 278 356 5 c399 6
374 0 374 86 0 91 30 85 -430 85 -223 0 -410 3 -416 7 -9 6 -654 967 -654 974
0 2 289 3 642 3 l641 0 216 -323 c118 -177 224 -325 234 -328 24 -8 123 57
132 87 6 16 -30 77 -169 285 -97 145 -176 267 -176 272 0 4 161 7 357 7 414 0
393 -5 389 90 -2 39 -8 62 -18 69 -12 8 -118 12 -372 11 -196 0 -356 3 -356 8
0 4 79 126 177 272 199 299 195 285 107 343 -53 35 -63 38 -86 20 -9 -7 -107
-150 -218 -318 -111 -168 -206 -309 -211 -315 -9 -9 -1299 -15 -1299 -5 0 3
153 235 340 515 l340 510 402 2 c479 2 433 0 451 17 20 21 15 125 -7 142 -13
9 -105 12 -367 12 -193 0 -352 2 -354 4 -2 2 74 121 170 265 95 144 172 270
171 280 -4 24 -105 95 -131 91 -14 -2 -77 -88 -207 -282 -103 -153 -191 -283
-196 -288 -5 -5 -89 113 -205 286 -122 183 -204 297 -217 301 -24 8 -114 -45
-131 -76 -13 -25 -21 -11 223 -376 114 -172 208 -315 208 -318 0 -6 -272 -417
-281 -425 -3 -3 -8 -9 -10 -15 -2 -5 -86 -133 -186 -283 l-183 -272 -331 496
c-181 273 -333 501 -335 508 -3 7 86 150 198 317 112 167 206 313 211 323 5
12 2 28 -8 42 -22 33 -100 77 -124 69 -12 -3 -97 -122 -206 -286 -102 -153
-189 -279 -193 -279 -4 0 -88 123 -187 272 -186 281 -206 308 -228 308 -8 0
-38 -17 -68 -38z"/>
</g>
</svg>
