<svg clip-rule="evenodd" fill-rule="evenodd" stroke-linejoin="round" stroke-miterlimit="1.41421" viewBox="0 0 500 60" xmlns="http://www.w3.org/2000/svg"><g fill="#95d0f1"><path d="m221.024 8.323c.242-.162.569-.096.731.146l4.921 7.378c.162.242.096.57-.146.731l-.878.586c-.242.161-.57.096-.731-.146l-4.921-7.378c-.162-.242-.096-.57.146-.732z"/><path d="m231.093 8.537c-.242-.162-.57-.096-.731.146l-27.799 41.677c-.162.242-.096.57.146.732l.878.585c.242.162.569.096.731-.146l27.799-41.678c.161-.242.096-.57-.146-.731z"/><path d="m203.587 8.323c.242-.162.569-.096.731.146l27.799 41.678c.161.242.096.57-.146.731l-.878.585c-.242.162-.57.096-.731-.146l-27.799-41.677c-.162-.242-.096-.57.146-.732z"/><path d="m234.78 29.61c.242-.161.57-.096.731.146l4.82 7.227c.162.242.097.57-.146.731l-.877.586c-.242.161-.57.096-.732-.146l-4.82-7.227c-.161-.242-.096-.57.146-.732z"/><path d="m195.288 21.914c.243-.161.57-.096.732.146l4.932 7.394c.161.243.096.57-.146.732l-.878.585c-.242.162-.57.096-.731-.146l-4.932-7.394c-.162-.242-.096-.57.146-.732z"/><path d="m209.221 42.978c.242-.161.57-.096.731.146l4.548 6.819c.162.242.096.57-.146.731l-.877.586c-.242.161-.57.096-.732-.147l-4.548-6.818c-.161-.242-.096-.57.146-.731z"/><path d="m195.288 38.3c.243.161.57.096.732-.146l4.572-6.856c.162-.242.096-.569-.146-.731l-.878-.585c-.242-.162-.569-.096-.731.146l-4.572 6.855c-.162.242-.096.57.146.731z"/><path d="m221.008 51.26c.242.161.569.096.731-.147l4.684-7.022c.162-.242.096-.57-.146-.732l-.878-.585c-.242-.161-.57-.096-.731.146l-4.684 7.023c-.162.242-.096.57.146.731z"/><path d="m209.085 16.907c.242.162.57.096.731-.146l4.684-7.022c.162-.242.096-.57-.146-.732l-.877-.585c-.242-.162-.57-.096-.732.146l-4.684 7.023c-.161.242-.096.57.146.731z"/><path d="m234.916 30.4c.242.161.57.096.731-.147l4.684-7.022c.162-.242.097-.57-.146-.732l-.877-.585c-.242-.161-.57-.096-.732.146l-4.684 7.023c-.161.242-.096.57.147.731z"/><path d="m244.87 29.627c0-.265-.216-.48-.481-.48h-54.635c-.265 0-.48.215-.48.48v.96c0 .265.215.48.48.48h54.635c.265 0 .481-.215.481-.48z"/><path d="m236.658 16.135c0-.265-.215-.481-.48-.481h-9.607c-.265 0-.48.216-.48.481v.96c0 .265.215.48.48.48h9.607c.265 0 .48-.215.48-.48z"/><path d="m208.88 16.135c0-.265-.215-.481-.48-.481h-9.688c-.265 0-.48.216-.48.481v.96c0 .265.215.48.48.48h9.688c.265 0 .48-.215.48-.48z"/><path d="m208.627 42.587c0-.265-.215-.481-.48-.481h-9.435c-.265 0-.48.216-.48.481v.96c0 .265.215.48.48.48h9.435c.265 0 .48-.215.48-.48z"/><path d="m236.253 42.587c0-.265-.216-.481-.481-.481h-9.201c-.265 0-.48.216-.48.481v.96c0 .265.215.48.48.48h9.201c.265 0 .481-.215.481-.48z"/></g><path d="m55.114 10.351c-.954 2.368-2.005 4.984-3.15 7.848-1.146 2.865-2.311 5.777-3.495 8.736-1.184 2.96-2.329 5.872-3.437 8.736-1.107 2.864-2.119 5.471-3.036 7.82-.916 2.348-1.69 4.334-2.32 5.957s-1.021 2.683-1.174 3.179l-8.707-22.971-.459-1.203c-.038.077-.095.306-.172.688-.038.152-.095.324-.171.515-1.07 2.941-2.101 5.824-3.094 8.65-.42 1.222-.859 2.473-1.317 3.752-.459 1.28-.917 2.55-1.375 3.81s-.898 2.463-1.318 3.609c-.42 1.145-.802 2.196-1.145 3.15-2.903-7.103-5.672-14.149-8.307-21.138-2.635-6.988-5.403-14.034-8.306-21.138h2.635c.802 2.024 1.69 4.259 2.664 6.703s1.957 4.926 2.95 7.447c.993 2.52 1.957 4.983 2.893 7.389s1.766 4.583 2.492 6.531c.725 1.948 1.327 3.561 1.804 4.84.478 1.28.755 2.053.831 2.32 0 .039.019.144.057.315.038.172.086.344.143.516.058.172.115.334.172.487.058.153.086.248.086.286l.516-1.546c0-.039.105-.363.315-.974s.477-1.385.802-2.32c.324-.936.697-2.005 1.117-3.208s.84-2.416 1.26-3.638c.993-2.902 2.12-6.186 3.38-9.853-.993-2.749-1.89-5.213-2.692-7.389-.344-.917-.688-1.833-1.032-2.75-.343-.917-.649-1.738-.916-2.463-.267-.726-.487-1.337-.659-1.833-.172-.497-.258-.783-.258-.86h2.349c1.833 4.812 3.571 9.433 5.213 13.863.687 1.91 1.403 3.857 2.148 5.843s1.461 3.924 2.148 5.815c.688 1.89 1.327 3.666 1.919 5.327s1.098 3.122 1.518 4.382l.516 1.604.458-1.604c.076-.267.353-1.05.831-2.348.477-1.299 1.079-2.922 1.804-4.869.726-1.948 1.556-4.134 2.492-6.56.936-2.425 1.9-4.888 2.893-7.389.993-2.502 1.976-4.974 2.95-7.419.974-2.444 1.881-4.659 2.721-6.645h2.463z" fill="#35383f" fill-rule="nonzero"/><path d="m86.85 50.794c-.993-2.406-2.053-5.003-3.179-7.79-1.127-2.788-2.263-5.672-3.409-8.65h-16.383c-1.146 2.978-2.272 5.862-3.38 8.65-1.107 2.787-2.158 5.384-3.151 7.79h-2.405c.801-1.871 1.67-3.952 2.606-6.244.936-2.291 1.909-4.697 2.921-7.218 1.012-2.52 2.034-5.088 3.065-7.704s2.053-5.185 3.065-7.705c1.012-2.521 1.986-4.936 2.921-7.247.936-2.31 1.805-4.401 2.607-6.272.764 1.871 1.613 3.962 2.549 6.272.936 2.311 1.91 4.726 2.922 7.247 1.012 2.52 2.033 5.089 3.064 7.705s2.053 5.184 3.065 7.704c1.012 2.521 1.986 4.927 2.922 7.218.935 2.292 1.804 4.373 2.606 6.244zm-15.295-35.688c-1.069 2.521-2.177 5.242-3.322 8.163-1.146 2.922-2.33 5.929-3.552 9.022h14.779c-1.184-3.093-2.358-6.1-3.523-9.022-1.164-2.921-2.262-5.642-3.294-8.163l-.515-1.661c-.077.305-.172.611-.287.916-.114.306-.21.554-.286.745z" fill="#35383f" fill-rule="nonzero"/><path d="m96.76 50.794v-40.5h8.994c1.413 0 2.855.21 4.325.63s2.807 1.079 4.01 1.977c1.203.897 2.186 2.062 2.95 3.494s1.146 3.16 1.146 5.184c0 2.253-.554 4.382-1.662 6.387-1.107 2.005-2.883 3.504-5.327 4.497.267.42.706 1.136 1.317 2.148.612 1.012 1.299 2.149 2.063 3.409s1.566 2.587 2.406 3.981 1.632 2.702 2.377 3.924 1.384 2.272 1.919 3.151c.535.878.897 1.451 1.088 1.718h-2.864c-.153-.229-.468-.744-.945-1.546s-1.05-1.757-1.719-2.865c-.668-1.107-1.393-2.301-2.176-3.58s-1.547-2.53-2.292-3.752c-.744-1.222-1.432-2.358-2.062-3.408-.63-1.051-1.136-1.881-1.518-2.492-.535.076-1.079.143-1.633.2-.553.057-1.136.086-1.747.086h-6.244v17.357zm2.406-19.648h6.301c2.025 0 3.705-.334 5.042-1.003 1.336-.668 2.396-1.499 3.179-2.492s1.327-2.052 1.632-3.179c.306-1.127.459-2.148.459-3.065 0-1.222-.239-2.367-.716-3.437-.478-1.069-1.165-2.005-2.063-2.807-.897-.802-1.976-1.441-3.236-1.919-1.26-.477-2.673-.716-4.239-.716h-6.359z" fill="#35383f" fill-rule="nonzero"/><path d="m130.272 8.461c1.413 2.139 2.978 4.44 4.697 6.903s3.437 4.926 5.156 7.39c1.718 2.463 3.389 4.85 5.012 7.16 1.623 2.311 3.084 4.382 4.382 6.215.459-.649 1.108-1.584 1.948-2.806.84-1.223 1.804-2.626 2.893-4.211 1.088-1.585 2.263-3.284 3.523-5.098s2.53-3.638 3.809-5.471c1.28-1.833 2.53-3.618 3.752-5.356s2.349-3.313 3.38-4.726v42.333h-2.463v-33.053c0-.382.01-.773.029-1.174s.028-.774.028-1.117c-1.336 1.833-2.759 3.847-4.267 6.043-1.509 2.196-3.017 4.411-4.526 6.645-1.508 2.234-2.96 4.402-4.354 6.502-1.393 2.1-2.644 3.972-3.752 5.614-.687-.917-1.537-2.081-2.549-3.494s-2.081-2.941-3.208-4.583c-1.126-1.642-2.282-3.332-3.466-5.07-1.183-1.738-2.291-3.37-3.322-4.898-1.031-1.527-1.938-2.893-2.721-4.096s-1.365-2.09-1.747-2.663c0 .343.019.716.057 1.117s.057.792.057 1.174v33.053h-2.348v-42.333z" fill="#35383f" fill-rule="nonzero"/><path d="m305.512 10.351c-.954 2.368-2.005 4.984-3.15 7.848-1.146 2.865-2.311 5.777-3.495 8.736-1.184 2.96-2.329 5.872-3.437 8.736-1.107 2.864-2.119 5.471-3.036 7.82-.916 2.348-1.69 4.334-2.32 5.957s-1.021 2.683-1.174 3.179l-8.707-22.971-.459-1.203c-.038.077-.095.306-.172.688-.038.152-.095.324-.171.515-1.07 2.941-2.101 5.824-3.094 8.65-.42 1.222-.859 2.473-1.317 3.752-.459 1.28-.917 2.55-1.375 3.81s-.898 2.463-1.318 3.609c-.42 1.145-.802 2.196-1.145 3.15-2.903-7.103-5.672-14.149-8.307-21.138-2.635-6.988-5.404-14.034-8.306-21.138h2.635c.802 2.024 1.69 4.259 2.664 6.703s1.957 4.926 2.95 7.447c.993 2.52 1.957 4.983 2.893 7.389s1.766 4.583 2.492 6.531c.725 1.948 1.327 3.561 1.804 4.84.478 1.28.754 2.053.831 2.32 0 .039.019.144.057.315.038.172.086.344.143.516.058.172.115.334.172.487.058.153.086.248.086.286l.516-1.546c0-.039.105-.363.315-.974s.477-1.385.802-2.32c.324-.936.697-2.005 1.117-3.208s.84-2.416 1.26-3.638c.993-2.902 2.12-6.186 3.38-9.853-.993-2.749-1.891-5.213-2.693-7.389-.343-.917-.687-1.833-1.031-2.75-.343-.917-.649-1.738-.916-2.463-.268-.726-.487-1.337-.659-1.833-.172-.497-.258-.783-.258-.86h2.349c1.833 4.812 3.571 9.433 5.213 13.863.687 1.91 1.403 3.857 2.148 5.843s1.461 3.924 2.148 5.815c.688 1.89 1.327 3.666 1.919 5.327s1.098 3.122 1.518 4.382l.516 1.604.458-1.604c.076-.267.353-1.05.831-2.348.477-1.299 1.079-2.922 1.804-4.869.726-1.948 1.556-4.134 2.492-6.56.936-2.425 1.9-4.888 2.893-7.389.993-2.502 1.976-4.974 2.95-7.419.974-2.444 1.881-4.659 2.721-6.645h2.463z" fill="#35383f" fill-rule="nonzero"/><path d="m313.131 10.294h2.349v40.5h-2.349z" fill="#35383f" fill-rule="nonzero"/><path d="m361.995 10.294v42.333c-2.177-2.711-4.621-5.671-7.333-8.879-2.711-3.208-5.451-6.473-8.22-9.795-2.769-3.323-5.451-6.579-8.048-9.767-2.597-3.189-4.889-6.101-6.874-8.736l-1.089-1.49.172 1.833v35.001h-2.406v-42.39c2.215 2.788 4.65 5.785 7.304 8.993s5.356 6.454 8.106 9.739c2.749 3.284 5.432 6.511 8.048 9.681s4.974 6.091 7.075 8.764l1.088 1.49-.172-1.833v-34.944z" fill="#35383f" fill-rule="nonzero"/><path d="m395.392 10.294v2.291h-11.228v38.209h-2.349v-38.209h-11.113v-2.291z" fill="#35383f" fill-rule="nonzero"/><path d="m404.099 50.794v-40.5h24.804v2.177h-22.398v16.842h20.107v2.176h-20.107v17.071h23.2v2.234z" fill="#35383f" fill-rule="nonzero"/><path d="m439.1 50.794v-40.5h8.994c1.413 0 2.854.21 4.325.63 1.47.42 2.807 1.079 4.009 1.977 1.203.897 2.187 2.062 2.951 3.494.763 1.432 1.145 3.16 1.145 5.184 0 2.253-.553 4.382-1.661 6.387-1.107 2.005-2.883 3.504-5.327 4.497.267.42.706 1.136 1.317 2.148s1.299 2.149 2.062 3.409c.764 1.26 1.566 2.587 2.406 3.981.841 1.394 1.633 2.702 2.378 3.924.744 1.222 1.384 2.272 1.919 3.151.534.878.897 1.451 1.088 1.718h-2.864c-.153-.229-.468-.744-.945-1.546-.478-.802-1.051-1.757-1.719-2.865-.668-1.107-1.394-2.301-2.177-3.58s-1.546-2.53-2.291-3.752-1.432-2.358-2.062-3.408c-.63-1.051-1.136-1.881-1.518-2.492-.535.076-1.079.143-1.633.2s-1.136.086-1.747.086h-6.244v17.357zm2.406-19.648h6.301c2.024 0 3.705-.334 5.041-1.003 1.337-.668 2.397-1.499 3.179-2.492.783-.993 1.328-2.052 1.633-3.179.306-1.127.458-2.148.458-3.065 0-1.222-.238-2.367-.716-3.437-.477-1.069-1.164-2.005-2.062-2.807-.897-.802-1.976-1.441-3.237-1.919-1.26-.477-2.673-.716-4.239-.716h-6.358z" fill="#35383f" fill-rule="nonzero"/><path d="m492.432 12.299-.859 1.89c-1.184-.496-2.607-.945-4.268-1.346s-3.294-.601-4.898-.601c-1.451 0-2.769.2-3.953.601-1.183.401-2.186.936-3.007 1.604-.821.669-1.451 1.451-1.89 2.349-.44.897-.659 1.862-.659 2.893 0 1.222.305 2.253.916 3.093s1.423 1.566 2.435 2.177 2.158 1.155 3.437 1.633c1.279.477 2.597.964 3.953 1.46 1.355.497 2.673 1.06 3.952 1.69 1.28.63 2.425 1.394 3.437 2.292 1.012.897 1.824 1.966 2.435 3.208.611 1.241.917 2.759.917 4.554 0 1.756-.316 3.341-.946 4.754s-1.537 2.616-2.721 3.609-2.597 1.757-4.239 2.292c-1.642.534-3.475.802-5.499.802-1.604 0-3.065-.153-4.382-.459-1.318-.305-2.492-.678-3.523-1.117s-1.919-.878-2.664-1.317-1.327-.774-1.747-1.003l1.145-2.119c.611.42 1.347.849 2.206 1.289.859.439 1.776.84 2.75 1.203.973.362 1.995.658 3.064.887 1.07.23 2.139.344 3.208.344 1.222 0 2.483-.181 3.781-.544s2.482-.917 3.552-1.661c1.069-.745 1.947-1.7 2.635-2.864.687-1.165 1.031-2.55 1.031-4.154 0-1.527-.306-2.826-.917-3.895s-1.422-1.976-2.434-2.721-2.158-1.394-3.437-1.948c-1.28-.553-2.597-1.079-3.953-1.575s-2.673-1.012-3.953-1.547c-1.279-.534-2.425-1.164-3.437-1.89s-1.823-1.585-2.434-2.578-.917-2.215-.917-3.666c0-1.337.277-2.607.831-3.81.554-1.202 1.336-2.253 2.348-3.15 1.012-.898 2.225-1.604 3.638-2.12 1.413-.515 2.979-.773 4.697-.773.879 0 1.805.067 2.779.2.973.134 1.938.306 2.892.516.955.21 1.843.449 2.664.716s1.499.535 2.034.802z" fill="#35383f" fill-rule="nonzero"/></svg>