<?xml version="1.0" encoding="UTF-8" standalone="no"?><!DOCTYPE svg PUBLIC "-//W3C//DTD SVG 1.1//EN" "http://www.w3.org/Graphics/SVG/1.1/DTD/svg11.dtd"><svg width="100%" height="100%" viewBox="0 0 520 60" version="1.1" xmlns="http://www.w3.org/2000/svg" xmlns:xlink="http://www.w3.org/1999/xlink" xml:space="preserve" style="fill-rule:evenodd;clip-rule:evenodd;stroke-linejoin:round;stroke-miterlimit:1.41421;"><path d="M227.558,8.323c0.242,-0.162 0.57,-0.096 0.731,0.146l4.921,7.378c0.162,0.242 0.096,0.57 -0.146,0.731l-0.877,0.586c-0.242,0.161 -0.57,0.096 -0.732,-0.146l-4.921,-7.378c-0.161,-0.242 -0.096,-0.57 0.146,-0.732l0.878,-0.585Z" style="fill:#95d0f1;"/><path d="M237.627,8.537c-0.242,-0.162 -0.57,-0.096 -0.731,0.146l-27.799,41.677c-0.161,0.242 -0.096,0.57 0.146,0.732l0.878,0.585c0.242,0.162 0.57,0.096 0.731,-0.146l27.799,-41.678c0.161,-0.242 0.096,-0.57 -0.146,-0.731l-0.878,-0.585Z" style="fill:#95d0f1;"/><path d="M210.121,8.323c0.242,-0.162 0.57,-0.096 0.731,0.146l27.799,41.678c0.161,0.242 0.096,0.57 -0.146,0.731l-0.878,0.585c-0.242,0.162 -0.57,0.096 -0.731,-0.146l-27.799,-41.677c-0.161,-0.242 -0.096,-0.57 0.146,-0.732l0.878,-0.585Z" style="fill:#95d0f1;"/><path d="M241.314,29.61c0.242,-0.161 0.57,-0.096 0.732,0.146l4.82,7.227c0.161,0.242 0.096,0.57 -0.146,0.731l-0.878,0.586c-0.242,0.161 -0.57,0.096 -0.731,-0.146l-4.82,-7.227c-0.162,-0.242 -0.096,-0.57 0.146,-0.732l0.877,-0.585Z" style="fill:#95d0f1;"/><path d="M201.823,21.914c0.242,-0.161 0.57,-0.096 0.731,0.146l4.932,7.394c0.161,0.243 0.096,0.57 -0.146,0.732l-0.878,0.585c-0.242,0.162 -0.57,0.096 -0.731,-0.146l-4.932,-7.394c-0.161,-0.242 -0.096,-0.57 0.146,-0.732l0.878,-0.585Z" style="fill:#95d0f1;"/><path d="M215.755,42.978c0.242,-0.161 0.57,-0.096 0.732,0.146l4.548,6.819c0.161,0.242 0.096,0.57 -0.146,0.731l-0.878,0.586c-0.242,0.161 -0.57,0.096 -0.731,-0.147l-4.548,-6.818c-0.162,-0.242 -0.096,-0.57 0.146,-0.731l0.877,-0.586Z" style="fill:#95d0f1;"/><path d="M201.823,38.3c0.242,0.161 0.57,0.096 0.731,-0.146l4.572,-6.856c0.162,-0.242 0.096,-0.569 -0.146,-0.731l-0.877,-0.585c-0.242,-0.162 -0.57,-0.096 -0.732,0.146l-4.572,6.855c-0.161,0.242 -0.096,0.57 0.146,0.731l0.878,0.586Z" style="fill:#95d0f1;"/><path d="M227.542,51.26c0.242,0.161 0.57,0.096 0.731,-0.147l4.684,-7.022c0.162,-0.242 0.096,-0.57 -0.146,-0.732l-0.877,-0.585c-0.242,-0.161 -0.57,-0.096 -0.732,0.146l-4.684,7.023c-0.161,0.242 -0.096,0.57 0.146,0.731l0.878,0.586Z" style="fill:#95d0f1;"/><path d="M215.619,16.907c0.242,0.162 0.57,0.096 0.732,-0.146l4.684,-7.022c0.161,-0.242 0.096,-0.57 -0.146,-0.732l-0.878,-0.585c-0.242,-0.162 -0.57,-0.096 -0.731,0.146l-4.684,7.023c-0.162,0.242 -0.096,0.57 0.146,0.731l0.877,0.585Z" style="fill:#95d0f1;"/><path d="M241.45,30.4c0.242,0.161 0.57,0.096 0.732,-0.147l4.684,-7.022c0.161,-0.242 0.096,-0.57 -0.146,-0.732l-0.878,-0.585c-0.242,-0.161 -0.57,-0.096 -0.731,0.146l-4.684,7.023c-0.162,0.242 -0.096,0.57 0.146,0.731l0.877,0.586Z" style="fill:#95d0f1;"/><path d="M251.404,29.627c0,-0.265 -0.215,-0.48 -0.48,-0.48l-54.636,0c-0.265,0 -0.48,0.215 -0.48,0.48l0,0.96c0,0.265 0.215,0.48 0.48,0.48l54.636,0c0.265,0 0.48,-0.215 0.48,-0.48l0,-0.96Z" style="fill:#95d0f1;"/><path d="M243.192,16.135c0,-0.265 -0.215,-0.481 -0.48,-0.481l-9.606,0c-0.265,0 -0.481,0.216 -0.481,0.481l0,0.96c0,0.265 0.216,0.48 0.481,0.48l9.606,0c0.265,0 0.48,-0.215 0.48,-0.48l0,-0.96Z" style="fill:#95d0f1;"/><path d="M215.414,16.135c0,-0.265 -0.215,-0.481 -0.48,-0.481l-9.688,0c-0.265,0 -0.48,0.216 -0.48,0.481l0,0.96c0,0.265 0.215,0.48 0.48,0.48l9.688,0c0.265,0 0.48,-0.215 0.48,-0.48l0,-0.96Z" style="fill:#95d0f1;"/><path d="M215.161,42.587c0,-0.265 -0.215,-0.481 -0.48,-0.481l-9.435,0c-0.265,0 -0.48,0.216 -0.48,0.481l0,0.96c0,0.265 0.215,0.48 0.48,0.48l9.435,0c0.265,0 0.48,-0.215 0.48,-0.48l0,-0.96Z" style="fill:#95d0f1;"/><path d="M242.787,42.587c0,-0.265 -0.215,-0.481 -0.48,-0.481l-9.201,0c-0.265,0 -0.481,0.216 -0.481,0.481l0,0.96c0,0.265 0.216,0.48 0.481,0.48l9.201,0c0.265,0 0.48,-0.215 0.48,-0.48l0,-0.96Z" style="fill:#95d0f1;"/><path d="M61.649,10.351c-0.955,2.368 -2.005,4.984 -3.151,7.848c-1.146,2.865 -2.31,5.777 -3.494,8.736c-1.184,2.96 -2.33,5.872 -3.437,8.736c-1.108,2.864 -2.12,5.471 -3.037,7.82c-0.916,2.348 -1.689,4.334 -2.32,5.957c-0.63,1.623 -1.021,2.683 -1.174,3.179l-8.707,-22.971l-0.458,-1.203c-0.039,0.077 -0.096,0.306 -0.172,0.688c-0.038,0.152 -0.096,0.324 -0.172,0.515c-1.069,2.941 -2.101,5.824 -3.093,8.65c-0.421,1.222 -0.86,2.473 -1.318,3.752c-0.458,1.28 -0.917,2.55 -1.375,3.81c-0.458,1.26 -0.897,2.463 -1.317,3.609c-0.42,1.145 -0.802,2.196 -1.146,3.15c-2.903,-7.103 -5.671,-14.149 -8.306,-21.138c-2.635,-6.988 -5.404,-14.034 -8.307,-21.138l2.635,0c0.802,2.024 1.69,4.259 2.664,6.703c0.974,2.444 1.957,4.926 2.95,7.447c0.993,2.52 1.958,4.983 2.893,7.389c0.936,2.406 1.767,4.583 2.492,6.531c0.726,1.948 1.327,3.561 1.805,4.84c0.477,1.28 0.754,2.053 0.83,2.32c0,0.039 0.019,0.144 0.057,0.315c0.039,0.172 0.086,0.344 0.144,0.516c0.057,0.172 0.114,0.334 0.172,0.487c0.057,0.153 0.085,0.248 0.085,0.286l0.516,-1.546c0,-0.039 0.105,-0.363 0.315,-0.974c0.21,-0.611 0.477,-1.385 0.802,-2.32c0.325,-0.936 0.697,-2.005 1.117,-3.208c0.42,-1.203 0.84,-2.416 1.26,-3.638c0.993,-2.902 2.12,-6.186 3.38,-9.853c-0.993,-2.749 -1.89,-5.213 -2.692,-7.389c-0.344,-0.917 -0.688,-1.833 -1.031,-2.75c-0.344,-0.917 -0.65,-1.738 -0.917,-2.463c-0.267,-0.726 -0.487,-1.337 -0.659,-1.833c-0.171,-0.497 -0.257,-0.783 -0.257,-0.86l2.348,0c1.833,4.812 3.571,9.433 5.213,13.863c0.688,1.91 1.404,3.857 2.148,5.843c0.745,1.986 1.461,3.924 2.148,5.815c0.688,1.89 1.328,3.666 1.92,5.327c0.591,1.661 1.097,3.122 1.518,4.382l0.515,1.604l0.458,-1.604c0.077,-0.267 0.354,-1.05 0.831,-2.348c0.477,-1.299 1.079,-2.922 1.804,-4.869c0.726,-1.948 1.557,-4.134 2.492,-6.56c0.936,-2.425 1.9,-4.888 2.893,-7.389c0.993,-2.502 1.977,-4.974 2.95,-7.419c0.974,-2.444 1.881,-4.659 2.721,-6.645l2.464,0Z" style="fill:#000222;fill-rule:nonzero;"/><path d="M93.384,50.794c-0.993,-2.406 -2.052,-5.003 -3.179,-7.79c-1.127,-2.788 -2.263,-5.672 -3.408,-8.65l-16.384,0c-1.146,2.978 -2.272,5.862 -3.38,8.65c-1.107,2.787 -2.157,5.384 -3.15,7.79l-2.406,0c0.802,-1.871 1.671,-3.952 2.606,-6.244c0.936,-2.291 1.91,-4.697 2.922,-7.218c1.012,-2.52 2.033,-5.088 3.064,-7.704c1.032,-2.616 2.053,-5.185 3.065,-7.705c1.012,-2.521 1.986,-4.936 2.922,-7.247c0.935,-2.31 1.804,-4.401 2.606,-6.272c0.764,1.871 1.614,3.962 2.549,6.272c0.936,2.311 1.91,4.726 2.922,7.247c1.012,2.52 2.033,5.089 3.065,7.705c1.031,2.616 2.052,5.184 3.064,7.704c1.012,2.521 1.986,4.927 2.922,7.218c0.935,2.292 1.804,4.373 2.606,6.244l-2.406,0Zm-15.295,-35.688c-1.069,2.521 -2.177,5.242 -3.322,8.163c-1.146,2.922 -2.33,5.929 -3.552,9.022l14.78,0c-1.184,-3.093 -2.359,-6.1 -3.523,-9.022c-1.165,-2.921 -2.263,-5.642 -3.294,-8.163l-0.516,-1.661c-0.076,0.305 -0.172,0.611 -0.286,0.916c-0.115,0.306 -0.21,0.554 -0.287,0.745Z" style="fill:#000222;fill-rule:nonzero;"/><path d="M103.295,50.794l0,-40.5l8.993,0c1.413,0 2.855,0.21 4.325,0.63c1.47,0.42 2.807,1.079 4.01,1.977c1.203,0.897 2.186,2.062 2.95,3.494c0.764,1.432 1.146,3.16 1.146,5.184c0,2.253 -0.554,4.382 -1.661,6.387c-1.108,2.005 -2.884,3.504 -5.328,4.497c0.268,0.42 0.707,1.136 1.318,2.148c0.611,1.012 1.298,2.149 2.062,3.409c0.764,1.26 1.566,2.587 2.406,3.981c0.84,1.394 1.633,2.702 2.377,3.924c0.745,1.222 1.385,2.272 1.919,3.151c0.535,0.878 0.898,1.451 1.089,1.718l-2.865,0c-0.152,-0.229 -0.467,-0.744 -0.945,-1.546c-0.477,-0.802 -1.05,-1.757 -1.718,-2.865c-0.669,-1.107 -1.394,-2.301 -2.177,-3.58c-0.783,-1.279 -1.547,-2.53 -2.291,-3.752c-0.745,-1.222 -1.433,-2.358 -2.063,-3.408c-0.63,-1.051 -1.136,-1.881 -1.518,-2.492c-0.534,0.076 -1.079,0.143 -1.632,0.2c-0.554,0.057 -1.136,0.086 -1.748,0.086l-6.244,0l0,17.357l-2.405,0Zm2.405,-19.648l6.302,0c2.024,0 3.704,-0.334 5.041,-1.003c1.336,-0.668 2.396,-1.499 3.179,-2.492c0.783,-0.993 1.327,-2.052 1.633,-3.179c0.305,-1.127 0.458,-2.148 0.458,-3.065c0,-1.222 -0.239,-2.367 -0.716,-3.437c-0.477,-1.069 -1.165,-2.005 -2.062,-2.807c-0.898,-0.802 -1.977,-1.441 -3.237,-1.919c-1.26,-0.477 -2.673,-0.716 -4.239,-0.716l-6.359,0l0,18.618Z" style="fill:#000222;fill-rule:nonzero;"/><path d="M136.806,8.461c1.413,2.139 2.979,4.44 4.697,6.903c1.719,2.463 3.437,4.926 5.156,7.39c1.718,2.463 3.389,4.85 5.012,7.16c1.623,2.311 3.084,4.382 4.383,6.215c0.458,-0.649 1.107,-1.584 1.947,-2.806c0.84,-1.223 1.805,-2.626 2.893,-4.211c1.089,-1.585 2.263,-3.284 3.523,-5.098c1.26,-1.814 2.53,-3.638 3.81,-5.471c1.279,-1.833 2.53,-3.618 3.752,-5.356c1.222,-1.738 2.348,-3.313 3.379,-4.726l0,42.333l-2.463,0l0,-33.053c0,-0.382 0.01,-0.773 0.029,-1.174c0.019,-0.401 0.029,-0.774 0.029,-1.117c-1.337,1.833 -2.76,3.847 -4.268,6.043c-1.509,2.196 -3.017,4.411 -4.526,6.645c-1.508,2.234 -2.959,4.402 -4.353,6.502c-1.394,2.1 -2.645,3.972 -3.752,5.614c-0.688,-0.917 -1.538,-2.081 -2.55,-3.494c-1.012,-1.413 -2.081,-2.941 -3.208,-4.583c-1.126,-1.642 -2.281,-3.332 -3.465,-5.07c-1.184,-1.738 -2.292,-3.37 -3.323,-4.898c-1.031,-1.527 -1.938,-2.893 -2.721,-4.096c-0.783,-1.203 -1.365,-2.09 -1.747,-2.663c0,0.343 0.019,0.716 0.057,1.117c0.039,0.401 0.058,0.792 0.058,1.174l0,33.053l-2.349,0l0,-42.333Z" style="fill:#000222;fill-rule:nonzero;"/><path d="M312.047,10.351c-0.955,2.368 -2.005,4.984 -3.151,7.848c-1.146,2.865 -2.311,5.777 -3.494,8.736c-1.184,2.96 -2.33,5.872 -3.437,8.736c-1.108,2.864 -2.12,5.471 -3.037,7.82c-0.916,2.348 -1.689,4.334 -2.32,5.957c-0.63,1.623 -1.021,2.683 -1.174,3.179l-8.707,-22.971l-0.458,-1.203c-0.039,0.077 -0.096,0.306 -0.172,0.688c-0.038,0.152 -0.096,0.324 -0.172,0.515c-1.069,2.941 -2.101,5.824 -3.094,8.65c-0.42,1.222 -0.859,2.473 -1.317,3.752c-0.458,1.28 -0.917,2.55 -1.375,3.81c-0.458,1.26 -0.897,2.463 -1.317,3.609c-0.421,1.145 -0.802,2.196 -1.146,3.15c-2.903,-7.103 -5.671,-14.149 -8.306,-21.138c-2.635,-6.988 -5.404,-14.034 -8.307,-21.138l2.635,0c0.802,2.024 1.69,4.259 2.664,6.703c0.974,2.444 1.957,4.926 2.95,7.447c0.993,2.52 1.958,4.983 2.893,7.389c0.936,2.406 1.766,4.583 2.492,6.531c0.726,1.948 1.327,3.561 1.805,4.84c0.477,1.28 0.754,2.053 0.83,2.32c0,0.039 0.019,0.144 0.057,0.315c0.039,0.172 0.086,0.344 0.144,0.516c0.057,0.172 0.114,0.334 0.172,0.487c0.057,0.153 0.085,0.248 0.085,0.286l0.516,-1.546c0,-0.039 0.105,-0.363 0.315,-0.974c0.21,-0.611 0.477,-1.385 0.802,-2.32c0.325,-0.936 0.697,-2.005 1.117,-3.208c0.42,-1.203 0.84,-2.416 1.26,-3.638c0.993,-2.902 2.12,-6.186 3.38,-9.853c-0.993,-2.749 -1.89,-5.213 -2.692,-7.389c-0.344,-0.917 -0.688,-1.833 -1.031,-2.75c-0.344,-0.917 -0.65,-1.738 -0.917,-2.463c-0.267,-0.726 -0.487,-1.337 -0.659,-1.833c-0.172,-0.497 -0.257,-0.783 -0.257,-0.86l2.348,0c1.833,4.812 3.571,9.433 5.213,13.863c0.688,1.91 1.404,3.857 2.148,5.843c0.745,1.986 1.461,3.924 2.148,5.815c0.688,1.89 1.328,3.666 1.919,5.327c0.592,1.661 1.098,3.122 1.519,4.382l0.515,1.604l0.458,-1.604c0.077,-0.267 0.354,-1.05 0.831,-2.348c0.477,-1.299 1.079,-2.922 1.804,-4.869c0.726,-1.948 1.557,-4.134 2.492,-6.56c0.936,-2.425 1.9,-4.888 2.893,-7.389c0.993,-2.502 1.977,-4.974 2.95,-7.419c0.974,-2.444 1.881,-4.659 2.721,-6.645l2.464,0Z" style="fill:#000222;fill-rule:nonzero;"/><rect x="319.665" y="10.294" width="2.349" height="40.5" style="fill:#000222;fill-rule:nonzero;"/><path d="M368.529,10.294l0,42.333c-2.177,-2.711 -4.621,-5.671 -7.332,-8.879c-2.712,-3.208 -5.452,-6.473 -8.221,-9.795c-2.768,-3.323 -5.451,-6.579 -8.048,-9.767c-2.597,-3.189 -4.888,-6.101 -6.874,-8.736l-1.089,-1.49l0.172,1.833l0,35.001l-2.406,0l0,-42.39c2.215,2.788 4.65,5.785 7.304,8.993c2.654,3.208 5.356,6.454 8.106,9.739c2.749,3.284 5.432,6.511 8.048,9.681c2.616,3.17 4.975,6.091 7.075,8.764l1.088,1.49l-0.171,-1.833l0,-34.944l2.348,0Z" style="fill:#000222;fill-rule:nonzero;"/><path d="M401.926,10.294l0,2.291l-11.228,0l0,38.209l-2.348,0l0,-38.209l-11.114,0l0,-2.291l24.69,0Z" style="fill:#000222;fill-rule:nonzero;"/><path d="M410.633,50.794l0,-40.5l24.805,0l0,2.177l-22.399,0l0,16.842l20.107,0l0,2.176l-20.107,0l0,17.071l23.201,0l0,2.234l-25.607,0Z" style="fill:#000222;fill-rule:nonzero;"/><path d="M445.634,50.794l0,-40.5l8.994,0c1.413,0 2.855,0.21 4.325,0.63c1.47,0.42 2.807,1.079 4.01,1.977c1.203,0.897 2.186,2.062 2.95,3.494c0.764,1.432 1.146,3.16 1.146,5.184c0,2.253 -0.554,4.382 -1.662,6.387c-1.107,2.005 -2.883,3.504 -5.327,4.497c0.267,0.42 0.706,1.136 1.317,2.148c0.611,1.012 1.299,2.149 2.063,3.409c0.763,1.26 1.565,2.587 2.406,3.981c0.84,1.394 1.632,2.702 2.377,3.924c0.745,1.222 1.384,2.272 1.919,3.151c0.535,0.878 0.897,1.451 1.088,1.718l-2.864,0c-0.153,-0.229 -0.468,-0.744 -0.945,-1.546c-0.477,-0.802 -1.05,-1.757 -1.719,-2.865c-0.668,-1.107 -1.393,-2.301 -2.176,-3.58c-0.783,-1.279 -1.547,-2.53 -2.292,-3.752c-0.744,-1.222 -1.432,-2.358 -2.062,-3.408c-0.63,-1.051 -1.136,-1.881 -1.518,-2.492c-0.535,0.076 -1.079,0.143 -1.633,0.2c-0.553,0.057 -1.136,0.086 -1.747,0.086l-6.244,0l0,17.357l-2.406,0Zm2.406,-19.648l6.301,0c2.024,0 3.705,-0.334 5.041,-1.003c1.337,-0.668 2.397,-1.499 3.18,-2.492c0.783,-0.993 1.327,-2.052 1.632,-3.179c0.306,-1.127 0.459,-2.148 0.459,-3.065c0,-1.222 -0.239,-2.367 -0.716,-3.437c-0.478,-1.069 -1.165,-2.005 -2.063,-2.807c-0.897,-0.802 -1.976,-1.441 -3.236,-1.919c-1.26,-0.477 -2.673,-0.716 -4.239,-0.716l-6.359,0l0,18.618Z" style="fill:#000222;fill-rule:nonzero;"/><path d="M498.966,12.299l-0.859,1.89c-1.184,-0.496 -2.607,-0.945 -4.268,-1.346c-1.661,-0.401 -3.294,-0.601 -4.898,-0.601c-1.451,0 -2.768,0.2 -3.952,0.601c-1.184,0.401 -2.187,0.936 -3.008,1.604c-0.821,0.669 -1.451,1.451 -1.89,2.349c-0.439,0.897 -0.659,1.862 -0.659,2.893c0,1.222 0.306,2.253 0.917,3.093c0.611,0.84 1.422,1.566 2.434,2.177c1.012,0.611 2.158,1.155 3.437,1.633c1.28,0.477 2.597,0.964 3.953,1.46c1.356,0.497 2.673,1.06 3.953,1.69c1.279,0.63 2.425,1.394 3.437,2.292c1.012,0.897 1.823,1.966 2.434,3.208c0.611,1.241 0.917,2.759 0.917,4.554c0,1.756 -0.315,3.341 -0.945,4.754c-0.631,1.413 -1.538,2.616 -2.721,3.609c-1.184,0.993 -2.597,1.757 -4.239,2.292c-1.643,0.534 -3.476,0.802 -5.5,0.802c-1.604,0 -3.065,-0.153 -4.382,-0.459c-1.318,-0.305 -2.492,-0.678 -3.523,-1.117c-1.031,-0.439 -1.919,-0.878 -2.664,-1.317c-0.744,-0.439 -1.327,-0.774 -1.747,-1.003l1.146,-2.119c0.611,0.42 1.346,0.849 2.205,1.289c0.859,0.439 1.776,0.84 2.75,1.203c0.974,0.362 1.995,0.658 3.065,0.887c1.069,0.23 2.138,0.344 3.207,0.344c1.223,0 2.483,-0.181 3.781,-0.544c1.299,-0.363 2.483,-0.917 3.552,-1.661c1.069,-0.745 1.948,-1.7 2.635,-2.864c0.687,-1.165 1.031,-2.55 1.031,-4.154c0,-1.527 -0.305,-2.826 -0.916,-3.895c-0.611,-1.069 -1.423,-1.976 -2.435,-2.721c-1.012,-0.745 -2.158,-1.394 -3.437,-1.948c-1.279,-0.553 -2.597,-1.079 -3.953,-1.575c-1.355,-0.496 -2.673,-1.012 -3.952,-1.547c-1.28,-0.534 -2.425,-1.164 -3.437,-1.89c-1.012,-0.726 -1.824,-1.585 -2.435,-2.578c-0.611,-0.993 -0.917,-2.215 -0.917,-3.666c0,-1.337 0.277,-2.607 0.831,-3.81c0.554,-1.202 1.337,-2.253 2.349,-3.15c1.012,-0.898 2.224,-1.604 3.637,-2.12c1.413,-0.515 2.979,-0.773 4.698,-0.773c0.878,0 1.804,0.067 2.778,0.2c0.974,0.134 1.938,0.306 2.893,0.516c0.955,0.21 1.842,0.449 2.664,0.716c0.821,0.267 1.498,0.535 2.033,0.802Z" style="fill:#000222;fill-rule:nonzero;"/></svg>