<svg clip-rule="evenodd" fill-rule="evenodd" stroke-linejoin="round" stroke-miterlimit="1.414" viewBox="0 0 500 60" xmlns="http://www.w3.org/2000/svg"><g fill="#95d0f1"><path d="M221.024 8.323a.527.527 0 01.731.146l4.921 7.378a.527.527 0 01-.146.731l-.878.586a.528.528 0 01-.731-.146L220 9.64a.528.528 0 01.146-.732z"/><path d="M231.093 8.537a.527.527 0 00-.731.146L202.563 50.36a.528.528 0 00.146.732l.878.585a.527.527 0 00.731-.146l27.799-41.678a.528.528 0 00-.146-.731z"/><path d="M203.587 8.323a.527.527 0 01.731.146l27.799 41.678a.528.528 0 01-.146.731l-.878.585a.527.527 0 01-.731-.146L202.563 9.64a.528.528 0 01.146-.732zM234.78 29.61a.528.528 0 01.731.146l4.82 7.227a.526.526 0 01-.146.731l-.877.586a.529.529 0 01-.732-.146l-4.82-7.227a.529.529 0 01.146-.732zm-39.492-7.696a.529.529 0 01.732.146l4.932 7.394a.529.529 0 01-.146.732l-.878.585a.527.527 0 01-.731-.146l-4.932-7.394a.528.528 0 01.146-.732zm13.933 21.064a.528.528 0 01.731.146l4.548 6.819a.527.527 0 01-.146.731l-.877.586a.528.528 0 01-.732-.147l-4.548-6.818a.528.528 0 01.146-.731z"/><path d="M195.288 38.3c.243.161.57.096.732-.146l4.572-6.856a.527.527 0 00-.146-.731l-.878-.585a.527.527 0 00-.731.146l-4.572 6.855a.527.527 0 00.146.731zm25.72 12.96a.527.527 0 00.731-.147l4.684-7.022a.528.528 0 00-.146-.732l-.878-.585a.528.528 0 00-.731.146l-4.684 7.023a.527.527 0 00.146.731zm-11.923-34.353c.242.162.57.096.731-.146l4.684-7.022a.528.528 0 00-.146-.732l-.877-.585a.528.528 0 00-.732.146l-4.684 7.023a.528.528 0 00.146.731zM234.916 30.4c.242.161.57.096.731-.147l4.684-7.022a.527.527 0 00-.146-.732l-.877-.585a.529.529 0 00-.732.146l-4.684 7.023a.527.527 0 00.147.731z"/><path d="M244.87 29.627a.481.481 0 00-.481-.48h-54.635a.48.48 0 00-.48.48v.96c0 .265.215.48.48.48h54.635a.481.481 0 00.481-.48zm-8.212-13.492a.481.481 0 00-.48-.481h-9.607a.481.481 0 00-.48.481v.96c0 .265.215.48.48.48h9.607a.48.48 0 00.48-.48zm-27.778 0a.481.481 0 00-.48-.481h-9.688a.481.481 0 00-.48.481v.96c0 .265.215.48.48.48h9.688a.48.48 0 00.48-.48zm-.253 26.452a.481.481 0 00-.48-.481h-9.435a.481.481 0 00-.48.481v.96c0 .265.215.48.48.48h9.435a.48.48 0 00.48-.48zm27.626 0a.482.482 0 00-.481-.481h-9.201a.481.481 0 00-.48.481v.96c0 .265.215.48.48.48h9.201a.481.481 0 00.481-.48z"/></g><path d="M55.114 10.351c-.954 2.368-2.005 4.984-3.15 7.848l-3.495 8.736a825.675 825.675 0 00-3.437 8.736 2525.027 2525.027 0 01-3.036 7.82c-.916 2.348-1.69 4.334-2.32 5.957s-1.021 2.683-1.174 3.179l-8.707-22.971-.459-1.203c-.038.077-.095.306-.172.688a4.114 4.114 0 01-.171.515 832.932 832.932 0 00-3.094 8.65c-.42 1.222-.859 2.473-1.317 3.752a935.065 935.065 0 01-2.693 7.419c-.42 1.145-.802 2.196-1.145 3.15a827.698 827.698 0 01-8.307-21.138 830.561 830.561 0 00-8.306-21.138h2.635c.802 2.024 1.69 4.259 2.664 6.703a1999.827 1999.827 0 015.843 14.836 493.226 493.226 0 012.492 6.531c.725 1.948 1.327 3.561 1.804 4.84.478 1.28.755 2.053.831 2.32 0 .039.019.144.057.315.038.172.086.344.143.516.058.172.115.334.172.487.058.153.086.248.086.286l.516-1.546c0-.039.105-.363.315-.974s.477-1.385.802-2.32c.324-.936.697-2.005 1.117-3.208s.84-2.416 1.26-3.638c.993-2.902 2.12-6.186 3.38-9.853a1231.39 1231.39 0 00-2.692-7.389l-1.032-2.75c-.343-.917-.649-1.738-.916-2.463-.267-.726-.487-1.337-.659-1.833-.172-.497-.258-.783-.258-.86h2.349c1.833 4.812 3.571 9.433 5.213 13.863.687 1.91 1.403 3.857 2.148 5.843s1.461 3.924 2.148 5.815c.688 1.89 1.327 3.666 1.919 5.327s1.098 3.122 1.518 4.382l.516 1.604.458-1.604c.076-.267.353-1.05.831-2.348.477-1.299 1.079-2.922 1.804-4.869a615.964 615.964 0 012.492-6.56c.936-2.425 1.9-4.888 2.893-7.389.993-2.502 1.976-4.974 2.95-7.419a346.018 346.018 0 012.721-6.645h2.463zM86.85 50.794c-.993-2.406-2.053-5.003-3.179-7.79a554.142 554.142 0 01-3.409-8.65H63.879a851.445 851.445 0 01-3.38 8.65 632.204 632.204 0 01-3.151 7.79h-2.405c.801-1.871 1.67-3.952 2.606-6.244.936-2.291 1.909-4.697 2.921-7.218 1.012-2.52 2.034-5.088 3.065-7.704s2.053-5.185 3.065-7.705c1.012-2.521 1.986-4.936 2.921-7.247.936-2.31 1.805-4.401 2.607-6.272a2564.344 2564.344 0 015.471 13.519c1.012 2.52 2.033 5.089 3.064 7.705A1284.855 1284.855 0 0086.65 44.55a386.25 386.25 0 002.606 6.244zM71.555 15.106a321.732 321.732 0 00-3.322 8.163c-1.146 2.922-2.33 5.929-3.552 9.022H79.46a702.554 702.554 0 00-3.523-9.022 945.773 945.773 0 00-3.294-8.163l-.515-1.661a8.476 8.476 0 01-.287.916c-.114.306-.21.554-.286.745zM96.76 50.794v-40.5h8.994c1.413 0 2.855.21 4.325.63s2.807 1.079 4.01 1.977c1.203.897 2.186 2.062 2.95 3.494s1.146 3.16 1.146 5.184c0 2.253-.554 4.382-1.662 6.387-1.107 2.005-2.883 3.504-5.327 4.497.267.42.706 1.136 1.317 2.148.612 1.012 1.299 2.149 2.063 3.409s1.566 2.587 2.406 3.981 1.632 2.702 2.377 3.924l1.919 3.151c.535.878.897 1.451 1.088 1.718h-2.864c-.153-.229-.468-.744-.945-1.546s-1.05-1.757-1.719-2.865c-.668-1.107-1.393-2.301-2.176-3.58s-1.547-2.53-2.292-3.752a621.45 621.45 0 01-2.062-3.408 163.158 163.158 0 00-1.518-2.492c-.535.076-1.079.143-1.633.2a17.06 17.06 0 01-1.747.086h-6.244v17.357zm2.406-19.648h6.301c2.025 0 3.705-.334 5.042-1.003 1.336-.668 2.396-1.499 3.179-2.492s1.327-2.052 1.632-3.179c.306-1.127.459-2.148.459-3.065a8.343 8.343 0 00-.716-3.437A8.24 8.24 0 00113 15.163c-.897-.802-1.976-1.441-3.236-1.919-1.26-.477-2.673-.716-4.239-.716h-6.359zm31.106-22.685a328.078 328.078 0 004.697 6.903l5.156 7.39a2568.004 2568.004 0 009.394 13.375 275.54 275.54 0 001.948-2.806l2.893-4.211c1.088-1.585 2.263-3.284 3.523-5.098s2.53-3.638 3.809-5.471c1.28-1.833 2.53-3.618 3.752-5.356s2.349-3.313 3.38-4.726v42.333h-2.463V17.741c0-.382.01-.773.029-1.174s.028-.774.028-1.117a264.433 264.433 0 00-4.267 6.043 1007.251 1007.251 0 00-8.88 13.147 863.46 863.46 0 01-3.752 5.614c-.687-.917-1.537-2.081-2.549-3.494s-2.081-2.941-3.208-4.583a1996.09 1996.09 0 01-3.466-5.07c-1.183-1.738-2.291-3.37-3.322-4.898-1.031-1.527-1.938-2.893-2.721-4.096s-1.365-2.09-1.747-2.663c0 .343.019.716.057 1.117s.057.792.057 1.174v33.053h-2.348V8.461zm175.24 1.89c-.954 2.368-2.005 4.984-3.15 7.848l-3.495 8.736a825.675 825.675 0 00-3.437 8.736 2525.027 2525.027 0 01-3.036 7.82c-.916 2.348-1.69 4.334-2.32 5.957s-1.021 2.683-1.174 3.179l-8.707-22.971-.459-1.203c-.038.077-.095.306-.172.688a4.114 4.114 0 01-.171.515 832.932 832.932 0 00-3.094 8.65c-.42 1.222-.859 2.473-1.317 3.752a935.065 935.065 0 01-2.693 7.419c-.42 1.145-.802 2.196-1.145 3.15a827.698 827.698 0 01-8.307-21.138 834.312 834.312 0 00-8.306-21.138h2.635c.802 2.024 1.69 4.259 2.664 6.703a1999.827 1999.827 0 015.843 14.836 493.226 493.226 0 012.492 6.531c.725 1.948 1.327 3.561 1.804 4.84.478 1.28.754 2.053.831 2.32 0 .039.019.144.057.315.038.172.086.344.143.516.058.172.115.334.172.487.058.153.086.248.086.286l.516-1.546c0-.039.105-.363.315-.974s.477-1.385.802-2.32c.324-.936.697-2.005 1.117-3.208s.84-2.416 1.26-3.638c.993-2.902 2.12-6.186 3.38-9.853-.993-2.749-1.891-5.213-2.693-7.389l-1.031-2.75c-.343-.917-.649-1.738-.916-2.463-.268-.726-.487-1.337-.659-1.833-.172-.497-.258-.783-.258-.86h2.349c1.833 4.812 3.571 9.433 5.213 13.863.687 1.91 1.403 3.857 2.148 5.843s1.461 3.924 2.148 5.815c.688 1.89 1.327 3.666 1.919 5.327s1.098 3.122 1.518 4.382l.516 1.604.458-1.604c.076-.267.353-1.05.831-2.348.477-1.299 1.079-2.922 1.804-4.869a615.964 615.964 0 012.492-6.56c.936-2.425 1.9-4.888 2.893-7.389.993-2.502 1.976-4.974 2.95-7.419a346.018 346.018 0 012.721-6.645h2.463zm7.619-.057h2.349v40.5h-2.349zm48.864 0v42.333a459.335 459.335 0 00-7.333-8.879 1888.791 1888.791 0 01-8.22-9.795 1138.368 1138.368 0 01-8.048-9.767 296.79 296.79 0 01-6.874-8.736l-1.089-1.49.172 1.833v35.001h-2.406V8.404c2.215 2.788 4.65 5.785 7.304 8.993s5.356 6.454 8.106 9.739c2.749 3.284 5.432 6.511 8.048 9.681s4.974 6.091 7.075 8.764l1.088 1.49-.172-1.833V10.294zm33.397 0v2.291h-11.228v38.209h-2.349V12.585h-11.113v-2.291zm8.707 40.5v-40.5h24.804v2.177h-22.398v16.842h20.107v2.176h-20.107V48.56h23.2v2.234zm35.001 0v-40.5h8.994c1.413 0 2.854.21 4.325.63 1.47.42 2.807 1.079 4.009 1.977 1.203.897 2.187 2.062 2.951 3.494.763 1.432 1.145 3.16 1.145 5.184 0 2.253-.553 4.382-1.661 6.387-1.107 2.005-2.883 3.504-5.327 4.497.267.42.706 1.136 1.317 2.148l2.062 3.409c.764 1.26 1.566 2.587 2.406 3.981a995.465 995.465 0 002.378 3.924l1.919 3.151c.534.878.897 1.451 1.088 1.718h-2.864a45.246 45.246 0 01-.945-1.546 673.611 673.611 0 00-3.896-6.445c-.783-1.279-1.546-2.53-2.291-3.752s-1.432-2.358-2.062-3.408a163.158 163.158 0 00-1.518-2.492c-.535.076-1.079.143-1.633.2s-1.136.086-1.747.086h-6.244v17.357zm2.406-19.648h6.301c2.024 0 3.705-.334 5.041-1.003 1.337-.668 2.397-1.499 3.179-2.492.783-.993 1.328-2.052 1.633-3.179.306-1.127.458-2.148.458-3.065a8.327 8.327 0 00-.716-3.437 8.223 8.223 0 00-2.062-2.807c-.897-.802-1.976-1.441-3.237-1.919-1.26-.477-2.673-.716-4.239-.716h-6.358zm50.926-18.847l-.859 1.89c-1.184-.496-2.607-.945-4.268-1.346s-3.294-.601-4.898-.601c-1.451 0-2.769.2-3.953.601-1.183.401-2.186.936-3.007 1.604a6.95 6.95 0 00-1.89 2.349 6.482 6.482 0 00-.659 2.893c0 1.222.305 2.253.916 3.093s1.423 1.566 2.435 2.177 2.158 1.155 3.437 1.633c1.279.477 2.597.964 3.953 1.46a40.497 40.497 0 013.952 1.69c1.28.63 2.425 1.394 3.437 2.292a10.339 10.339 0 012.435 3.208c.611 1.241.917 2.759.917 4.554 0 1.756-.316 3.341-.946 4.754s-1.537 2.616-2.721 3.609-2.597 1.757-4.239 2.292c-1.642.534-3.475.802-5.499.802-1.604 0-3.065-.153-4.382-.459-1.318-.305-2.492-.678-3.523-1.117s-1.919-.878-2.664-1.317-1.327-.774-1.747-1.003l1.145-2.119c.611.42 1.347.849 2.206 1.289.859.439 1.776.84 2.75 1.203.973.362 1.995.658 3.064.887 1.07.23 2.139.344 3.208.344 1.222 0 2.483-.181 3.781-.544s2.482-.917 3.552-1.661A9.055 9.055 0 00491 43.892c.687-1.165 1.031-2.55 1.031-4.154 0-1.527-.306-2.826-.917-3.895s-1.422-1.976-2.434-2.721-2.158-1.394-3.437-1.948c-1.28-.553-2.597-1.079-3.953-1.575s-2.673-1.012-3.953-1.547c-1.279-.534-2.425-1.164-3.437-1.89s-1.823-1.585-2.434-2.578-.917-2.215-.917-3.666c0-1.337.277-2.607.831-3.81a9.466 9.466 0 012.348-3.15c1.012-.898 2.225-1.604 3.638-2.12 1.413-.515 2.979-.773 4.697-.773.879 0 1.805.067 2.779.2.973.134 1.938.306 2.892.516.955.21 1.843.449 2.664.716s1.499.535 2.034.802z" fill="#35383f" fill-rule="nonzero"/></svg>